<mxfile host="app.diagrams.net" modified="2024-01-09T01:05:45.708Z" agent="Mozilla/5.0 (X11; Ubuntu; Linux x86_64; rv:109.0) Gecko/20100101 Firefox/119.0" version="22.1.17" etag="N9TDpr6HW3Ri1eU8-28k" type="github">
  <diagram name="Page-1" id="qsIuo9I5N25srC5EdKng">
    <mxGraphModel>
      <root>
        <mxCell id="0" />
        <mxCell id="1" parent="0" />
      </root>
    </mxGraphModel>
  </diagram>
</mxfile>
